<?xml version="1.0" encoding="utf-8"?>
<!-- Generator: Adobe Illustrator 14.0.0, SVG Export Plug-In . SVG Version: 6.00 Build 43363)  -->
<!DOCTYPE svg PUBLIC "-//W3C//DTD SVG 1.1//EN" "http://www.w3.org/Graphics/SVG/1.1/DTD/svg11.dtd">
<svg version="1.1" id="Layer_1" xmlns="http://www.w3.org/2000/svg" xmlns:xlink="http://www.w3.org/1999/xlink" x="0px" y="0px"
	 width="800px" height="720px" viewBox="0 0 800 720" enable-background="new 0 0 800 720" xml:space="preserve">
<polygon fill="none" stroke="#f1f1f1" stroke-width="20" points="400,361.5 491.385,452.885 452.75,491.519 400,438.767
	347.25,491.519 308.617,452.884 "/>
<polyline fill="none" stroke="#f1f1f1" stroke-width="20" points="361.367,400.134 308.617,347.384 347.25,308.75 400,361.5
	452.75,308.75 491.385,347.384 438.635,400.134 "/>
<polyline fill="none" stroke="#f1f1f1" stroke-width="20" points="327.933,366.7 294.499,400.134 328.5,433.001 "/>
<polyline fill="none" stroke="#f1f1f1" stroke-width="20" points="366.566,328.066 400,294.633 433.434,328.066 "/>
<polyline fill="none" stroke="#f1f1f1" stroke-width="20" points="472.068,366.7 505.502,400.134 472.068,433.001 "/>
<polyline fill="none" stroke="#f1f1f1" stroke-width="20" points="366.566,472.202 400,505.636 433.434,472.202 "/>
<path fill="none" stroke="#f1f1f1" stroke-width="15" d="M400,250.134c0,0,28.166,0,33.435-30.9
	c3.314-25.506-22.936-31.422-33.816-65.593c-8.786,32.17-36.12,40.836-33.054,65.593C371.167,250.134,400,250.134,400,250.134z"/>
</svg>
